<svg width="794" height="437" viewBox="0 0 794 437" fill="none" xmlns="http://www.w3.org/2000/svg">
<path opacity="0.3" d="M401.924 342.432C469.128 342.432 523.607 287.932 523.607 220.703C523.607 153.474 469.128 98.9734 401.924 98.9734C334.721 98.9734 280.242 153.474 280.242 220.703C280.242 287.932 334.721 342.432 401.924 342.432Z" fill="#8D86F3"/>
<path d="M351.953 65.8393L270.933 164.18L390.842 305.748L470.781 211.73L351.953 65.8393Z" fill="#8D86F3"/>
<path opacity="0.1" d="M351.953 65.8393L270.933 164.18L390.842 305.748L470.781 211.73L351.953 65.8393Z" fill="black"/>
<path d="M274.174 165.261C275.966 162.034 278.189 159.066 280.78 156.437L355.193 80.9685C355.193 80.9685 381.12 76.6458 386.521 89.6139L291.458 167.422L274.174 165.261Z" fill="#F2F2F2"/>
<path d="M270.393 163.64L380.579 332.225C380.579 332.225 391.382 339.79 402.185 335.467L515.071 259.28L395.163 77.7265L287.137 162.019L270.393 163.64Z" fill="#8D86F3"/>
<path d="M381.692 104.036L312.55 153.739L313.571 155.162L382.714 105.458L381.692 104.036Z" fill="#3F3D56"/>
<path d="M311.633 172.343L310.173 173.309L400.914 310.555L402.375 309.588L311.633 172.343Z" fill="#3F3D56"/>
<path d="M485.377 259.644L411.936 313.699L412.974 315.11L486.415 261.055L485.377 259.644Z" fill="#3F3D56"/>
<path d="M394.801 106.405L393.365 107.405L487.347 242.489L488.783 241.489L394.801 106.405Z" fill="#3F3D56"/>
<path d="M365.771 79.8972L280.291 158.379L281.021 159.175L366.501 80.693L365.771 79.8972Z" fill="#3F3D56"/>
<path d="M372.892 80.57L283.554 159.469L284.269 160.28L373.607 81.3805L372.892 80.57Z" fill="#3F3D56"/>
<path d="M378.48 82.1425L285.739 159.476L286.431 160.307L379.172 82.973L378.48 82.1425Z" fill="#3F3D56"/>
<path d="M765.111 226.82C760.139 224.976 753.97 221.827 750.146 218.491L752.841 225.944H704.708V227.695H752.842L750.146 235.15C753.97 231.814 760.139 228.665 765.111 226.82Z" fill="white"/>
</svg>
